 <svg width="19" height="15" viewBox="0 0 19 15" fill="none" xmlns="http://www.w3.org/2000/svg">
<path d="M18.1139 8.08997C18.1912 8.01228 18.2525 7.92013 18.2941 7.81877C18.3366 7.71784 18.3584 7.60947 18.3584 7.5C18.3584 7.39053 18.3366 7.28215 18.2941 7.18123C18.2525 7.07987 18.1912 6.98772 18.1139 6.91003L11.4381 0.234246C11.2807 0.0822404 11.0699 -0.00186973 10.8511 3.15453e-05C10.6324 0.00193282 10.4231 0.0896934 10.2683 0.244411C10.1136 0.399129 10.0259 0.608425 10.024 0.827222C10.0221 1.04602 10.1062 1.25681 10.2582 1.41419L15.5095 6.66553H0.834473C0.613157 6.66553 0.400905 6.75344 0.244411 6.90994C0.0879174 7.06643 0 7.27868 0 7.5C0 7.72132 0.0879174 7.93357 0.244411 8.09006C0.400905 8.24656 0.613157 8.33447 0.834473 8.33447H15.5095L10.2582 13.5858C10.1062 13.7432 10.0221 13.954 10.024 14.1728C10.0259 14.3916 10.1136 14.6009 10.2683 14.7556C10.4231 14.9103 10.6324 14.9981 10.8511 15C11.0699 15.0019 11.2807 14.9178 11.4381 14.7658L18.1139 8.08997Z" fill="#888888"/>
</svg>