<svg id="Layer_1" enable-background="new 0 0 512 512" height="512" viewBox="0 0 512 512" width="512" xmlns="http://www.w3.org/2000/svg"><g><path d="m41.922 74.583c9.992 0 10.008-15 0-15-9.992 0-10.008 15 0 15z"/><path d="m68.755 74.583c9.992 0 10.008-15 0-15-9.992 0-10.008 15 0 15z"/><path d="m95.589 74.583c9.992 0 10.008-15 0-15-9.992 0-10.009 15 0 15z"/><path d="m504.5 31h-497c-4.142 0-7.5 3.358-7.5 7.5v435c0 4.142 3.358 7.5 7.5 7.5h497c4.143 0 7.5-3.358 7.5-7.5v-435c0-4.142-3.357-7.5-7.5-7.5zm-93.772 252.89h86.272v90.837h-86.272zm86.272-237.89v42.167h-219.164c-9.386 0-9.813 15 0 15h219.164v165.723h-86.272v-33.117c0-4.142-3.357-7.5-7.5-7.5h-294.456c-4.142 0-7.5 3.358-7.5 7.5v33.117h-86.272v-165.723h217.401c9.385 0 9.813-15 0-15h-217.401v-42.167zm-482 237.89h86.272v90.837h-86.272zm0 182.11v-76.273h86.272v33.117c0 4.142 3.358 7.5 7.5 7.5h214.394c9.386 0 9.813-15 0-15h-206.894v-172.07h279.455v172.07h-32.75c-9.386 0-9.813 15 0 15h40.25c4.143 0 7.5-3.358 7.5-7.5v-33.117h86.273v76.273z"/><path d="m465.289 324.838-17.33-23.348c-5.594-7.536-17.893 1.061-12.045 8.94l14.013 18.878-14.013 18.878c-5.635 7.593 6.317 16.656 12.045 8.94l17.33-23.349c1.97-2.653 1.97-6.285 0-8.939z"/><path d="m76.086 348.187-14.013-18.878 14.013-18.878c5.595-7.536-6.196-16.82-12.044-8.94l-17.331 23.348c-1.971 2.654-1.971 6.286 0 8.94l17.331 23.349c5.535 7.455 17.923-1.021 12.044-8.941z"/><path d="m136 154c0 4.142 3.358 7.5 7.5 7.5h225c9.386 0 9.813-15 0-15h-225c-4.142 0-7.5 3.358-7.5 7.5z"/><path d="m327 178.887h-142c-9.385 0-9.813 15 0 15h142c9.386 0 9.813-15 0-15z"/><path d="m330.025 312.435c8.719-3.474 3.565-17.564-5.553-13.935l-21.874 8.715c-31.118-55.897-114.698-23.201-98.948 39.425l-21.776 8.676c-8.758 3.489-3.451 17.523 5.552 13.935l22.319-8.893c32.147 49.868 108.122 19.566 97.892-39.004zm-113.398 19.604c.435-39.596 52.255-52.924 71.933-19.23l-70.87 28.237c-.694-2.89-1.063-5.906-1.063-9.007zm77.082 0c-.254 37.434-47.962 52.47-69.713 22.642l69.389-27.647c.213 1.639.324 3.309.324 5.005z"/><path d="m182.548 316.369c9.652 0 9.668-15 0-15-9.652 0-9.668 15 0 15z"/><path d="m329.452 334.993c-9.652 0-9.668 15 0 15 9.652 0 9.668-15 0-15z"/><path d="m197.357 290.898c9.652 0 9.668-15 0-15-9.652 0-9.668 15 0 15z"/></g></svg>