<svg id="Layer_1" enable-background="new 0 0 512 512" height="512" viewBox="0 0 512 512" width="512" xmlns="http://www.w3.org/2000/svg"><g><path d="m41.922 59.583c-9.992 0-10.008 15 0 15 9.992 0 10.008-15 0-15z"/><path d="m68.755 59.583c-9.992 0-10.008 15 0 15 9.992 0 10.008-15 0-15z"/><path d="m95.589 59.583c-9.992 0-10.008 15 0 15 9.991 0 10.008-15 0-15z"/><path d="m504.5 31h-497c-4.143 0-7.5 3.357-7.5 7.5v435c0 4.143 3.357 7.5 7.5 7.5h497c4.143 0 7.5-3.357 7.5-7.5v-435c0-4.143-3.357-7.5-7.5-7.5zm-337.934 435v-31.896h120.746v31.896zm170.83 0v-66.5h120.746v66.5zm135.747 0v-74c0-4.143-3.357-7.5-7.5-7.5h-135.747c-4.143 0-7.5 3.357-7.5 7.5v74h-20.084v-39.396c0-4.143-3.357-7.5-7.5-7.5h-135.746c-4.143 0-7.5 3.357-7.5 7.5v39.396h-24.382c.313-29.955.285-59.658-.086-90.547-.114-9.692-15.115-9.518-14.998.18.37 30.83.398 60.472.084 90.367h-97.184v-362.813l97.136.182c.36 75.343.348 151.653-.038 226.947-.049 9.414 14.949 9.963 15 .076.386-75.315.399-151.645.038-227.008l247.286-.218c9.941-.028 8.649-13.386-.041-15-83.87.23-325.204.11-359.381.021v-42.187h482v42.249c-25.114.246-51.713.218-77.409-.081-9.427-.304-9.608 14.889-.176 14.998l77.585.083v362.751z"/><path d="m83.781 131.388h-42.114c-9.697 0-9.697 15 0 15h42.114c9.698 0 9.698-15 0-15z"/><path d="m41.667 178.028h32.114c9.697 0 9.697-15 0-15h-32.114c-9.697 0-9.697 15 0 15z"/><path d="m83.781 194.668h-42.114c-9.697 0-9.697 15 0 15h42.114c9.698 0 9.698-15 0-15z"/><path d="m62.781 226.309h-21.114c-9.697 0-9.697 15 0 15h21.114c9.698 0 9.698-15 0-15z"/><path d="m294.812 126.735h-135.746c-4.143 0-7.5 3.357-7.5 7.5v135.746c0 4.143 3.357 7.5 7.5 7.5h135.746c4.143 0 7.5-3.357 7.5-7.5v-135.746c0-4.142-3.357-7.5-7.5-7.5zm-7.5 135.746h-120.746v-120.746h120.746z"/><path d="m294.812 297.086h-135.746c-4.143 0-7.5 3.357-7.5 7.5v87.414c0 4.143 3.357 7.5 7.5 7.5h135.746c4.143 0 7.5-3.357 7.5-7.5v-87.414c0-4.143-3.357-7.5-7.5-7.5zm-7.5 87.414h-120.746v-72.414h120.746z"/><path d="m465.643 126.735h-135.747c-4.143 0-7.5 3.357-7.5 7.5v221.635c0 4.143 3.357 7.5 7.5 7.5h135.746c4.143 0 7.5-3.357 7.5-7.5v-221.635c.001-4.142-3.357-7.5-7.499-7.5zm-7.5 221.635h-120.747v-206.635h120.746v206.635z"/></g></svg>