<svg id="Capa_1" enable-background="new 0 0 512 512" height="512" viewBox="0 0 512 512" width="512" xmlns="http://www.w3.org/2000/svg"><g><path d="m256 190c30.327 0 55-24.673 55-55s-24.673-55-55-55-55 24.673-55 55 24.673 55 55 55zm0-80c13.785 0 25 11.215 25 25s-11.215 25-25 25-25-11.215-25-25 11.215-25 25-25z"/><path d="m466 182h-81.251l3.164-5.48c4.142-7.174 1.684-16.348-5.49-20.49l-12.3-7.102c.583-4.672.877-9.328.877-13.928s-.294-9.256-.877-13.928l12.3-7.102c7.174-4.143 9.632-13.316 5.49-20.49l-30-51.961c-4.142-7.174-13.315-9.632-20.49-5.491l-12.353 7.132c-7.49-5.679-15.537-10.359-24.071-14v-14.16c0-8.284-6.716-15-15-15h-60c-8.284 0-15 6.716-15 15v14.16c-8.534 3.641-16.581 8.321-24.071 14l-12.353-7.132c-7.175-4.141-16.349-1.683-20.49 5.491l-30 51.961c-4.142 7.174-1.684 16.348 5.49 20.49l12.3 7.102c-.581 4.672-.875 9.328-.875 13.928s.294 9.256.877 13.928l-12.3 7.102c-7.174 4.143-9.632 13.316-5.49 20.49l3.164 5.48h-81.251c-24.813 0-45 20.187-45 45v240c0 24.813 20.187 45 45 45h420c24.813 0 45-20.187 45-45v-240c0-24.813-20.187-45-45-45zm-292.928-28.551c-1.375-6.21-2.072-12.417-2.072-18.449s.697-12.239 2.072-18.449c1.416-6.391-1.477-12.961-7.145-16.233l-8.36-4.827 15-25.98 8.422 4.861c5.674 3.274 12.814 2.491 17.64-1.938 9.372-8.598 20.092-14.832 31.865-18.53 6.253-1.965 10.506-7.758 10.506-14.311v-9.593h30v9.593c0 6.553 4.253 12.347 10.505 14.311 11.773 3.698 22.494 9.933 31.865 18.53 4.826 4.428 11.967 5.213 17.64 1.938l8.422-4.861 15 25.98-8.36 4.827c-5.668 3.272-8.561 9.843-7.145 16.233 1.376 6.21 2.073 12.417 2.073 18.449s-.697 12.239-2.072 18.449c-1.416 6.391 1.477 12.961 7.145 16.233l8.36 4.827-15 25.98-8.422-4.862c-5.673-3.274-12.814-2.491-17.641 1.938-9.371 8.598-20.092 14.833-31.865 18.531-6.251 1.964-10.504 7.758-10.504 14.311v9.593h-30v-9.593c0-6.553-4.253-12.347-10.504-14.311-11.773-3.698-22.495-9.934-31.865-18.531-4.827-4.428-11.968-5.213-17.641-1.938l-8.422 4.862-15-25.98 8.36-4.827c5.667-3.272 8.559-9.842 7.143-16.233zm-28.501 58.551 9.515 16.48c4.143 7.175 13.315 9.636 20.49 5.49l12.353-7.132c7.489 5.68 15.537 10.359 24.071 14.001v14.161c0 8.284 6.716 15 15 15h60c8.284 0 15-6.716 15-15v-14.16c8.534-3.642 16.582-8.321 24.071-14.001l12.353 7.132c7.174 4.143 16.348 1.684 20.49-5.49l9.515-16.48h83.571l-195 146.249-195-146.25zm-113.571 255v-240l160 120zm30 15 155-116.25 31 23.25c2.667 2 5.833 3 9 3s6.333-1 9-3l31-23.25 155 116.25zm420-255v240l-160-120z"/></g></svg>